<?xml version="1.0" encoding="iso-8859-1"?>
<!-- Generator: Adobe Illustrator 16.0.0, SVG Export Plug-In . SVG Version: 6.00 Build 0)  -->
<!DOCTYPE svg PUBLIC "-//W3C//DTD SVG 1.1//EN" "http://www.w3.org/Graphics/SVG/1.1/DTD/svg11.dtd">
<svg version="1.1" id="Capa_1" xmlns="http://www.w3.org/2000/svg" xmlns:xlink="http://www.w3.org/1999/xlink" x="0px" y="0px"
	 width="82.188px" height="82.188px" viewBox="0 0 82.188 82.188" style="enable-background:new 0 0 82.188 82.188;"
	 xml:space="preserve">
<g>
	<path style="fill:#010002;" d="M25.456,4.606h-8.492c-8.184,0-14.843,6.662-14.843,14.844v8.492
		c0,8.182,6.659,14.843,14.843,14.843h8.492c8.184,0,14.843-6.662,14.843-14.843V19.45C40.299,11.268,33.64,4.606,25.456,4.606
		 M24.959,23.696l8.626,8.626l-3.749,3.749l-8.626-8.626l-8.627,8.626l-3.749-3.749l8.627-8.626l-8.627-8.627l3.749-3.749
		l8.627,8.627l8.626-8.627l3.749,3.749L24.959,23.696z M82.188,49.875h-9.942v29.826H47.391V59.818h-9.944v19.884H12.593V49.875
		H2.651l6.81-6.806C3.886,40.276,0,34.564,0,27.941V19.45C0,10.121,7.635,2.486,16.964,2.486h8.492
		c6.623,0,12.334,3.886,15.123,9.46l1.84-1.835L82.188,49.875z"/>
</g>
<g>
</g>
<g>
</g>
<g>
</g>
<g>
</g>
<g>
</g>
<g>
</g>
<g>
</g>
<g>
</g>
<g>
</g>
<g>
</g>
<g>
</g>
<g>
</g>
<g>
</g>
<g>
</g>
<g>
</g>
</svg>